<?xml version="1.0" encoding="UTF-8"?>
<!DOCTYPE svg PUBLIC "-//W3C//DTD SVG 1.1//EN" "http://www.w3.org/Graphics/SVG/1.1/DTD/svg11.dtd">
<!-- Creator: CorelDRAW 2017 -->
<svg xmlns="http://www.w3.org/2000/svg" xml:space="preserve" width="95mm" height="30mm" version="1.1" style="shape-rendering:geometricPrecision; text-rendering:geometricPrecision; image-rendering:optimizeQuality; fill-rule:evenodd; clip-rule:evenodd"
viewBox="0 0 9500 3000"
 xmlns:xlink="http://www.w3.org/1999/xlink">
 <defs>
  <style type="text/css">
   <![CDATA[
    .fil0 {fill:none}
    .fil1 {fill:black;fill-rule:nonzero}
   ]]>
  </style>
 </defs>
 <g id="Camada_x0020_1">
  <metadata id="CorelCorpID_0Corel-Layer"/>
  <rect class="fil0" width="9500" height="3000"/>
  <g id="_1988736410224">
   <path class="fil1" d="M5041.92 2293.15l0 -987.28c0,-125.35 26.62,-237.02 79.5,-335.38 53.24,-98.73 125.72,-174.9 218.16,-228.89 92.44,-54.35 194.87,-81.35 308.01,-81.35 82.46,1.12 160.12,16.65 232.96,46.97 72.47,29.95 136.07,72.1 191.17,126.45 54.73,53.99 97.62,117.96 128.68,192.29 30.69,73.95 46.22,154.19 46.22,240.35l0 1031.27 -99.84 0 0 -976.19 -1009.46 0 0 971.76 -95.4 0zm109.09 -1069.37l995.77 0c-4.43,-87.27 -30.32,-167.13 -78.02,-239.97 -47.7,-72.48 -109.45,-129.8 -184.89,-171.95 -75.79,-41.78 -154.56,-63.59 -236.28,-65.08 -78.75,0 -156.03,21.08 -231.84,63.6 -75.8,42.52 -137.92,100.21 -186.72,173.43 -48.45,72.84 -74.7,153.07 -78.02,239.97z"/>
   <polygon class="fil1" points="6583.85,2293.15 6470.69,2293.15 6470.69,702.41 6566.09,702.41 7220.21,1223.78 7835.13,715.72 7943.84,715.72 7943.84,2293.15 7839.57,2293.15 7839.57,842.18 7207.26,1352.46 6583.85,862.15 "/>
   <polygon class="fil1" points="3719.64,711.28 4906.59,711.28 4906.59,797.81 4360.81,797.81 4360.81,2297.58 4265.42,2297.58 4265.42,797.81 3719.64,797.81 "/>
   <polygon class="fil1" points="3324.36,2293.15 3324.36,706.85 3424.2,706.85 3424.2,2293.15 "/>
   <polygon class="fil1" points="1669.29,697.98 2288.27,2089.03 2907.26,702.41 3024.85,702.41 2283.85,2339.74 1556.15,697.98 "/>
   <path class="fil1" d="M5041.92 2293.15l0 -987.28c0,-125.35 26.62,-237.02 79.5,-335.38 53.24,-98.73 125.72,-174.9 218.16,-228.89 92.44,-54.35 194.87,-81.35 308.01,-81.35 82.46,1.12 160.12,16.65 232.96,46.97 72.47,29.95 136.07,72.1 191.17,126.45 54.73,53.99 97.62,117.96 128.68,192.29 30.69,73.95 46.22,154.19 46.22,240.35l0 1031.27 -99.84 0 0 -976.19 -1009.46 0 0 971.76 -95.4 0zm109.09 -1069.37l995.77 0c-4.43,-87.27 -30.32,-167.13 -78.02,-239.97 -47.7,-72.48 -109.45,-129.8 -184.89,-171.95 -75.79,-41.78 -154.56,-63.59 -236.28,-65.08 -78.75,0 -156.03,21.08 -231.84,63.6 -75.8,42.52 -137.92,100.21 -186.72,173.43 -48.45,72.84 -74.7,153.07 -78.02,239.97z"/>
   <polygon class="fil1" points="6583.85,2293.15 6470.69,2293.15 6470.69,702.41 6566.09,702.41 7220.21,1223.78 7835.13,715.72 7943.84,715.72 7943.84,2293.15 7839.57,2293.15 7839.57,842.18 7207.26,1352.46 6583.85,862.15 "/>
   <polygon class="fil1" points="3719.64,711.28 4906.59,711.28 4906.59,797.81 4360.81,797.81 4360.81,2297.58 4265.42,2297.58 4265.42,797.81 3719.64,797.81 "/>
   <polygon class="fil1" points="3324.36,2293.15 3324.36,706.85 3424.2,706.85 3424.2,2293.15 "/>
   <polygon class="fil1" points="1669.29,697.98 2288.27,2089.03 2907.26,702.41 3024.85,702.41 2283.85,2339.74 1556.15,697.98 "/>
  </g>
 </g>
</svg>
