<?xml version="1.0" encoding="UTF-8"?>
<!DOCTYPE svg PUBLIC "-//W3C//DTD SVG 1.1//EN" "http://www.w3.org/Graphics/SVG/1.1/DTD/svg11.dtd">
<!-- Creator: CorelDRAW 2017 -->
<svg xmlns="http://www.w3.org/2000/svg" xml:space="preserve" width="95mm" height="30mm" version="1.1" style="shape-rendering:geometricPrecision; text-rendering:geometricPrecision; image-rendering:optimizeQuality; fill-rule:evenodd; clip-rule:evenodd"
viewBox="0 0 9500 3000"
 xmlns:xlink="http://www.w3.org/1999/xlink">
 <defs>
  <style type="text/css">
   <![CDATA[
    .fil0 {fill:none}
    .fil1 {fill:lime}
    .fil2 {fill:black;fill-rule:nonzero}
   ]]>
  </style>
 </defs>
 <g id="Camada_x0020_1">
  <metadata id="CorelCorpID_0Corel-Layer"/>
  <rect class="fil0" width="9500" height="3000"/>
  <g id="_1988602810560">
   <path class="fil1" d="M8654.44 1604.99l-48.97 454.4c-1.57,14.55 -13.72,25.47 -28.35,25.47l-114.1 0 -103.33 666.88c-2.22,14.25 -14.48,24.5 -28.89,24.15 -14.41,-0.36 -26.15,-11.19 -27.66,-25.53l-214.58 -2042.41 -142.74 1775.19c-1.09,13.64 -11.35,24.35 -24.94,26.02 -13.58,1.67 -26.13,-6.24 -30.5,-19.21l-136.64 -405.74 -5837.73 0c-11.51,0 -21.36,-6.39 -26.04,-16.91l-34.95 -78.4 -463.74 -1046.25 -299.49 611.82c-5.47,11.18 -16.94,17.35 -29.29,15.74 -12.34,-1.61 -21.86,-10.5 -24.28,-22.71l-194.29 -975.71 -149.3 1207.51c-1.65,13.41 -12.11,23.58 -25.56,24.88 -13.44,1.3 -25.65,-6.69 -29.84,-19.53l-179.61 -550.28 -181.07 0.16c-15.71,0.01 -28.54,-12.78 -28.55,-28.48 0,-15.71 12.79,-28.54 28.49,-28.55l201.78 -0.18c12.56,-0.01 23.24,7.73 27.13,19.67l146.34 448.32 155.31 -1256.11c1.73,-14 13.14,-24.48 27.25,-25 14.09,-0.52 26.25,9.09 29,22.93l212.37 1066.49 289.29 -590.98c4.98,-10.19 14.81,-16.18 26.14,-15.97 11.34,0.21 20.93,6.58 25.53,16.95l488.5 1102.12 27.39 61.44 5839.7 0c12.46,0 23.05,7.61 27.02,19.42l98.88 293.57 156.25 -1943.31c1.18,-14.74 13.29,-26.05 28.07,-26.23 14.78,-0.19 27.16,10.83 28.71,25.53l223.78 2129.99 73.47 -474.17c2.18,-14 14.01,-24.15 28.18,-24.15l112.93 0 71.04 -659.21c1.56,-14.4 13.44,-25.24 27.92,-25.46 14.48,-0.22 26.69,10.25 28.68,24.6l91.35 659.42 450.98 0c15.7,0 28.52,12.81 28.52,28.52 0,15.7 -12.82,28.51 -28.52,28.51l-475.82 0c-14.33,0 -26.28,-10.41 -28.25,-24.6l-62.97 -454.62z"/>
   <g>
    <path class="fil2" d="M4805.57 1857l0 -987.28c0,-125.35 26.62,-237.02 79.5,-335.38 53.24,-98.73 125.72,-174.9 218.16,-228.89 92.44,-54.35 194.87,-81.35 308.01,-81.35 82.46,1.12 160.12,16.65 232.96,46.97 72.47,29.95 136.07,72.1 191.17,126.45 54.73,53.99 97.62,117.96 128.68,192.29 30.69,73.95 46.22,154.19 46.22,240.35l0 1031.27 -99.84 0 0 -976.19 -1009.46 0 0 971.76 -95.4 0zm109.09 -1069.37l995.77 0c-4.43,-87.27 -30.32,-167.13 -78.02,-239.97 -47.7,-72.48 -109.45,-129.8 -184.89,-171.95 -75.79,-41.78 -154.56,-63.59 -236.28,-65.08 -78.75,0 -156.03,21.08 -231.84,63.6 -75.8,42.52 -137.92,100.21 -186.72,173.43 -48.45,72.84 -74.7,153.07 -78.02,239.97z"/>
    <polygon class="fil2" points="6347.5,1857 6234.34,1857 6234.34,266.26 6329.74,266.26 6983.86,787.63 7598.78,279.57 7707.49,279.57 7707.49,1857 7603.22,1857 7603.22,406.03 6970.91,916.31 6347.5,426 "/>
    <polygon class="fil2" points="3483.29,275.13 4670.24,275.13 4670.24,361.66 4124.46,361.66 4124.46,1861.43 4029.07,1861.43 4029.07,361.66 3483.29,361.66 "/>
    <polygon class="fil2" points="3088.01,1857 3088.01,270.7 3187.85,270.7 3187.85,1857 "/>
    <polygon class="fil2" points="1432.94,261.83 2051.92,1652.88 2670.91,266.26 2788.5,266.26 2047.5,1903.59 1319.8,261.83 "/>
    <path class="fil2" d="M4805.57 1857l0 -987.28c0,-125.35 26.62,-237.02 79.5,-335.38 53.24,-98.73 125.72,-174.9 218.16,-228.89 92.44,-54.35 194.87,-81.35 308.01,-81.35 82.46,1.12 160.12,16.65 232.96,46.97 72.47,29.95 136.07,72.1 191.17,126.45 54.73,53.99 97.62,117.96 128.68,192.29 30.69,73.95 46.22,154.19 46.22,240.35l0 1031.27 -99.84 0 0 -976.19 -1009.46 0 0 971.76 -95.4 0zm109.09 -1069.37l995.77 0c-4.43,-87.27 -30.32,-167.13 -78.02,-239.97 -47.7,-72.48 -109.45,-129.8 -184.89,-171.95 -75.79,-41.78 -154.56,-63.59 -236.28,-65.08 -78.75,0 -156.03,21.08 -231.84,63.6 -75.8,42.52 -137.92,100.21 -186.72,173.43 -48.45,72.84 -74.7,153.07 -78.02,239.97z"/>
    <polygon class="fil2" points="6347.5,1857 6234.34,1857 6234.34,266.26 6329.74,266.26 6983.86,787.63 7598.78,279.57 7707.49,279.57 7707.49,1857 7603.22,1857 7603.22,406.03 6970.91,916.31 6347.5,426 "/>
    <polygon class="fil2" points="3483.29,275.13 4670.24,275.13 4670.24,361.66 4124.46,361.66 4124.46,1861.43 4029.07,1861.43 4029.07,361.66 3483.29,361.66 "/>
    <polygon class="fil2" points="3088.01,1857 3088.01,270.7 3187.85,270.7 3187.85,1857 "/>
    <polygon class="fil2" points="1432.94,261.83 2051.92,1652.88 2670.91,266.26 2788.5,266.26 2047.5,1903.59 1319.8,261.83 "/>
   </g>
  </g>
 </g>
</svg>
