<?xml version="1.0" encoding="UTF-8"?>
<!DOCTYPE svg PUBLIC "-//W3C//DTD SVG 1.1//EN" "http://www.w3.org/Graphics/SVG/1.1/DTD/svg11.dtd">
<!-- Creator: CorelDRAW 2017 -->
<svg xmlns="http://www.w3.org/2000/svg" xml:space="preserve" width="95mm" height="30mm" version="1.1" style="shape-rendering:geometricPrecision; text-rendering:geometricPrecision; image-rendering:optimizeQuality; fill-rule:evenodd; clip-rule:evenodd"
viewBox="0 0 9500 3000"
 xmlns:xlink="http://www.w3.org/1999/xlink">
 <defs>
  <style type="text/css">
   <![CDATA[
    .fil0 {fill:none}
    .fil3 {fill:black}
    .fil1 {fill:lime}
    .fil2 {fill:black;fill-rule:nonzero}
   ]]>
  </style>
 </defs>
 <g id="Camada_x0020_1">
  <metadata id="CorelCorpID_0Corel-Layer"/>
  <rect class="fil0" width="9500" height="3000"/>
  <path class="fil1" d="M8654.44 1604.99l-48.97 454.4c-1.57,14.55 -13.72,25.47 -28.35,25.47l-114.1 0 -103.33 666.88c-2.22,14.25 -14.48,24.5 -28.89,24.15 -14.41,-0.36 -26.15,-11.19 -27.66,-25.53l-214.58 -2042.41 -142.74 1775.19c-1.09,13.64 -11.35,24.35 -24.94,26.02 -13.58,1.67 -26.13,-6.24 -30.5,-19.21l-136.64 -405.74 -5837.73 0c-11.51,0 -21.36,-6.39 -26.04,-16.91l-34.95 -78.4 -463.74 -1046.25 -299.49 611.82c-5.47,11.18 -16.94,17.35 -29.29,15.74 -12.34,-1.61 -21.86,-10.5 -24.28,-22.71l-194.29 -975.71 -149.3 1207.51c-1.65,13.41 -12.11,23.58 -25.56,24.88 -13.44,1.3 -25.65,-6.69 -29.84,-19.53l-179.61 -550.28 -181.07 0.16c-15.71,0.01 -28.54,-12.78 -28.55,-28.48 0,-15.71 12.79,-28.54 28.49,-28.55l201.78 -0.18c12.56,-0.01 23.24,7.73 27.13,19.67l146.34 448.32 155.31 -1256.11c1.73,-14 13.14,-24.48 27.25,-25 14.09,-0.52 26.25,9.09 29,22.93l212.37 1066.49 289.29 -590.98c4.98,-10.19 14.81,-16.18 26.14,-15.97 11.34,0.21 20.93,6.58 25.53,16.95l488.5 1102.12 27.39 61.44 5839.7 0c12.46,0 23.05,7.61 27.02,19.42l98.88 293.57 156.25 -1943.31c1.18,-14.74 13.29,-26.05 28.07,-26.23 14.78,-0.19 27.16,10.83 28.71,25.53l223.78 2129.99 73.47 -474.17c2.18,-14 14.01,-24.15 28.18,-24.15l112.93 0 71.04 -659.21c1.56,-14.4 13.44,-25.24 27.92,-25.46 14.48,-0.22 26.69,10.25 28.68,24.6l91.35 659.42 450.98 0c15.7,0 28.52,12.81 28.52,28.52 0,15.7 -12.82,28.51 -28.52,28.51l-475.82 0c-14.33,0 -26.28,-10.41 -28.25,-24.6l-62.97 -454.62z"/>
  <g id="_1988606829472">
   <path class="fil2" d="M4805.57 1857l0 -987.28c0,-125.35 26.62,-237.02 79.5,-335.38 53.24,-98.73 125.72,-174.9 218.16,-228.89 92.44,-54.35 194.87,-81.35 308.01,-81.35 82.46,1.12 160.12,16.65 232.96,46.97 72.47,29.95 136.07,72.1 191.17,126.45 54.73,53.99 97.62,117.96 128.68,192.29 30.69,73.95 46.22,154.19 46.22,240.35l0 1031.27 -99.84 0 0 -976.19 -1009.46 0 0 971.76 -95.4 0zm109.09 -1069.37l995.77 0c-4.43,-87.27 -30.32,-167.13 -78.02,-239.97 -47.7,-72.48 -109.45,-129.8 -184.89,-171.95 -75.79,-41.78 -154.56,-63.59 -236.28,-65.08 -78.75,0 -156.03,21.08 -231.84,63.6 -75.8,42.52 -137.92,100.21 -186.72,173.43 -48.45,72.84 -74.7,153.07 -78.02,239.97z"/>
   <polygon class="fil2" points="6347.5,1857 6234.34,1857 6234.34,266.26 6329.74,266.26 6983.86,787.63 7598.78,279.57 7707.49,279.57 7707.49,1857 7603.22,1857 7603.22,406.03 6970.91,916.31 6347.5,426 "/>
   <polygon class="fil2" points="3483.29,275.13 4670.24,275.13 4670.24,361.66 4124.46,361.66 4124.46,1861.43 4029.07,1861.43 4029.07,361.66 3483.29,361.66 "/>
   <polygon class="fil2" points="3088.01,1857 3088.01,270.7 3187.85,270.7 3187.85,1857 "/>
   <polygon class="fil2" points="1432.94,261.83 2051.92,1652.88 2670.91,266.26 2788.5,266.26 2047.5,1903.59 1319.8,261.83 "/>
   <path class="fil2" d="M4805.57 1857l0 -987.28c0,-125.35 26.62,-237.02 79.5,-335.38 53.24,-98.73 125.72,-174.9 218.16,-228.89 92.44,-54.35 194.87,-81.35 308.01,-81.35 82.46,1.12 160.12,16.65 232.96,46.97 72.47,29.95 136.07,72.1 191.17,126.45 54.73,53.99 97.62,117.96 128.68,192.29 30.69,73.95 46.22,154.19 46.22,240.35l0 1031.27 -99.84 0 0 -976.19 -1009.46 0 0 971.76 -95.4 0zm109.09 -1069.37l995.77 0c-4.43,-87.27 -30.32,-167.13 -78.02,-239.97 -47.7,-72.48 -109.45,-129.8 -184.89,-171.95 -75.79,-41.78 -154.56,-63.59 -236.28,-65.08 -78.75,0 -156.03,21.08 -231.84,63.6 -75.8,42.52 -137.92,100.21 -186.72,173.43 -48.45,72.84 -74.7,153.07 -78.02,239.97z"/>
   <polygon class="fil2" points="6347.5,1857 6234.34,1857 6234.34,266.26 6329.74,266.26 6983.86,787.63 7598.78,279.57 7707.49,279.57 7707.49,1857 7603.22,1857 7603.22,406.03 6970.91,916.31 6347.5,426 "/>
   <polygon class="fil2" points="3483.29,275.13 4670.24,275.13 4670.24,361.66 4124.46,361.66 4124.46,1861.43 4029.07,1861.43 4029.07,361.66 3483.29,361.66 "/>
   <polygon class="fil2" points="3088.01,1857 3088.01,270.7 3187.85,270.7 3187.85,1857 "/>
   <polygon class="fil2" points="1432.94,261.83 2051.92,1652.88 2670.91,266.26 2788.5,266.26 2047.5,1903.59 1319.8,261.83 "/>
  </g>
  <path class="fil3" d="M1913.61 2362.75c-0.08,15.74 3.02,30.91 9.08,45.42 6.15,14.71 15.22,27.51 26.74,38.53 12.5,11.95 27.46,20.59 43.6,26.68 18.72,7.07 38.66,9.84 58.61,9.84l64.7 0 0 27.46 -82.17 0c-26.96,0 -52.38,-6.44 -75.59,-20.19 -22.78,-13.5 -40.67,-31.91 -53.66,-54.99 -13.29,-23.62 -19.85,-49.21 -20,-76.34 -0.12,-20.82 3.72,-41.08 11.84,-60.26 7.88,-18.62 19.17,-35.01 33.77,-48.98 14.92,-14.28 32.37,-24.93 51.63,-32.33 20.67,-7.93 42.51,-11.37 64.6,-11.37l69.58 0 0 29.09 -73.23 0c-14.97,0 -29.73,2.87 -43.91,7.59 -15.36,5.13 -29.35,12.98 -41.99,23.07 -13.47,10.75 -23.68,24.43 -31.25,39.85 -8.74,17.8 -12.25,37.2 -12.35,56.93zm332.03 -64.33c19.03,0 36.81,4.81 53.23,14.43 16.36,9.58 29.35,22.7 38.89,39.1 9.67,16.61 14.42,34.66 14.42,53.89 0,19.01 -4.82,36.83 -14.43,53.23 -9.54,16.3 -22.58,29.33 -38.88,38.87 -16.43,9.63 -34.2,14.37 -53.23,14.37 -19.07,0 -36.98,-4.71 -53.43,-14.37 -16.32,-9.58 -29.28,-22.53 -38.82,-38.88 -9.57,-16.4 -14.28,-34.24 -14.28,-53.22 0,-19.22 4.62,-37.31 14.27,-53.96 9.52,-16.4 22.48,-29.43 38.83,-39.03 16.45,-9.66 34.35,-14.43 53.43,-14.43zm313.68 84.2l0 128.06 -29.09 0 0 -124c0,-10.51 -2.69,-20.24 -8.2,-29.19 -5.57,-9.06 -12.95,-16.16 -22.15,-21.52 -9.21,-5.37 -19.16,-8.21 -29.7,-8.46 -11.97,0 -23.12,2.88 -33.36,9.09 -10.05,6.09 -17.92,14.19 -23.68,24.44 -5.74,10.21 -8.57,21.24 -8.57,32.95l0 115.88 -29.09 0 0 -122.38c0,-16.52 4.46,-31.81 13.56,-45.6 9.06,-13.74 21.11,-24.28 35.71,-31.88 14.78,-7.68 30.55,-11.73 47.23,-11.59 16.26,0.14 31.5,4.36 45.26,13.02 12.85,8.08 23.46,18.61 30.99,31.81 6.93,12.14 11.09,25.32 11.09,39.37zm189.67 -54.3l-116.28 0c-5.48,0 -10.2,1.61 -14.46,5.05 -3.85,3.11 -5.72,6.93 -5.72,11.88 0,4.22 0.75,9.08 4.74,11.38 5.59,3.23 18.89,3.52 25.18,3.52l46.71 0c13.98,0 27.45,2.89 39.8,9.54 11.69,6.29 21.05,15.09 27.91,26.46 6.88,11.39 10.38,23.78 10.8,37.24 0,13.88 -3.41,26.97 -10.42,38.95 -6.9,11.77 -16.3,21.15 -28.06,28.04 -11.59,6.8 -24.17,10.3 -37.59,10.3l-108.1 0 0 -29.09 110.94 0c7.95,0 15.25,-2.11 22.07,-6.19 6.99,-4.18 12.4,-9.72 16.43,-16.8 4.02,-7.05 6.05,-14.6 6.05,-22.71 0,-8.48 -2.08,-16.28 -6.45,-23.55 -4.35,-7.22 -10.22,-12.87 -17.58,-16.96 -7.51,-4.18 -15.58,-6.14 -24.17,-6.14l-63.77 0c-7.8,0 -15.08,-2.13 -21.58,-6.44 -6.5,-4.31 -11.41,-10.07 -14.96,-16.99 -3.63,-7.07 -5.42,-14.65 -5.42,-22.59 0,-7.95 2.38,-15.32 6.8,-21.93 4.58,-6.85 10.75,-11.98 18.11,-15.65 7.41,-3.68 15.35,-5.6 23.62,-5.6l115.4 0 0 28.28zm144.35 185.61c-15.96,-0.35 -31.18,-3.96 -45.58,-10.85 -14.64,-7.01 -26.33,-17.5 -35.19,-31.09 -9.68,-14.85 -13.47,-31.93 -13.47,-49.5l0 -122.45 28.68 0 0 121.5c0,11.75 2.8,22.72 8.67,32.9 5.81,10.07 13.72,18.08 23.73,23.98 10.04,5.92 20.87,8.86 32.41,8.86 10.75,-0.25 20.57,-3.35 29.71,-9 9.15,-5.66 16.69,-13.07 22.24,-22.29 5.08,-8.44 8.08,-17.58 8.08,-27.48l0 -128.47 28.28 0 0 127.26c0,15.74 -4.33,30.34 -12.76,43.63 -8.36,13.17 -19.34,23.7 -32.88,31.44 -12.9,7.38 -26.91,11.56 -41.92,11.56zm129.14 -4.06l0 -309.74 29.09 0 0 309.74 -29.09 0zm100.57 -207.39l69.12 0 0 29.5 -69.12 0 0 107.09c0,11.23 1.48,23.95 7.18,33.85 5.15,8.94 15.13,11.11 24.78,11.11l35.46 0 0 26.65 -39.11 0c-15.05,0 -28.31,-4.87 -39.79,-14.58 -15.91,-13.46 -18.42,-40.09 -18.42,-59.46l0 -236.51 29.9 0 0 102.35zm199.29 -4.06c19.03,0 36.81,4.81 53.23,14.43 16.36,9.58 29.35,22.7 38.89,39.1 9.67,16.61 14.42,34.66 14.42,53.89 0,19.01 -4.82,36.83 -14.43,53.23 -9.54,16.3 -22.58,29.33 -38.88,38.87 -16.43,9.63 -34.2,14.37 -53.23,14.37 -19.07,0 -36.98,-4.71 -53.43,-14.37 -16.32,-9.58 -29.28,-22.53 -38.82,-38.88 -9.57,-16.4 -14.28,-34.24 -14.28,-53.22 0,-19.22 4.62,-37.31 14.27,-53.96 9.52,-16.4 22.48,-29.43 38.83,-39.03 16.45,-9.66 34.35,-14.43 53.43,-14.43zm170.71 211.68l-28.27 -1.26 0 -145.31c0,-11.86 3.1,-22.89 9.62,-32.81 6.4,-9.72 14.89,-17.25 25.23,-22.6 10.47,-5.41 21.72,-8.08 33.5,-8.08l31.4 0 0 28.28 -29.77 0c-8.3,0 -16.62,1.53 -23.6,6.25 -6.12,4.14 -10.71,9.54 -13.64,16.33 -3.08,7.12 -4.47,14.64 -4.47,22.38l0 136.82zm122.46 -305.5c4.68,0 8.77,1.77 11.9,5.24 3.04,3.36 4.47,7.43 4.47,11.94 0,4.44 -1.5,8.4 -4.73,11.48 -3.22,3.07 -7.21,4.49 -11.64,4.49 -4.29,0 -8.1,-1.53 -11.3,-4.63 -3.04,-3.14 -4.53,-6.98 -4.53,-11.34 0,-4.44 1.43,-8.47 4.36,-11.82 2.99,-3.43 6.91,-5.36 11.47,-5.36zm-14.27 305.27l0 -203.73 29.09 0 0 203.73 -29.09 0zm222.69 -147.28c-0.57,-4.82 -1.98,-9.44 -4.37,-13.78 -3.04,-5.53 -7.19,-9.94 -12.58,-13.23 -5.43,-3.32 -11.27,-4.82 -17.63,-4.82l-99.16 0 0 -29.09 91.58 0c12.3,0 24.16,2.38 35.31,7.65 10.84,5.13 19.71,12.68 26.33,22.68 6.91,10.45 9.9,22.31 9.9,34.78l0 143.9 -112.22 0c-12.72,0 -24.4,-3.55 -34.95,-10.66 -10.74,-7.23 -18.87,-16.83 -24.63,-28.39 -5.97,-11.96 -8.78,-24.88 -8.78,-38.43 0.5,-13.36 4.44,-25.66 12.14,-36.61 7.75,-11.03 18.08,-19.27 30.24,-25.05 12.92,-6.15 26.79,-8.95 41.07,-8.95l67.75 0zm187.55 0l137.43 0 0 29.9 -150.72 0c-0.58,4.13 -0.77,8.36 -0.77,12.47 0,14.27 2.93,28.01 10.26,40.36 7.03,11.85 16.94,20.59 29.27,26.71 14.13,7.01 29.97,9.56 45.63,9.56l66.33 0 0 28.28 -68.36 0c-21.04,0 -42.15,-3.56 -60.99,-13.29 -16.71,-8.64 -30.21,-20.83 -39.48,-37.24 -9.33,-16.49 -13.38,-34.61 -13.38,-53.5 0,-18.99 4.65,-36.8 14.54,-53.03 9.8,-16.09 23.16,-28.55 39.73,-37.54 17.22,-9.34 35.95,-13.6 55.52,-13.6l72.42 0 0 29.09 -79.73 0c-12.97,0 -25.07,3.26 -36.27,9.81 -9.29,5.43 -16.3,12.92 -21.43,22.02zm296.7 -33.64c5.42,-8.05 12.42,-14.69 20.84,-20.01 11.26,-7.11 23.68,-10.52 37.11,-10.52 9.06,0.22 17.88,2.03 26.25,5.53 8.33,3.48 15.87,8.3 22.55,14.38 6.78,6.16 12.17,13.4 16.06,21.69 3.97,8.46 5.88,17.42 5.88,26.76l0 143.09 -29.08 0 0 -129.62c0,-8.86 -1.43,-17.48 -4.62,-25.75 -2.88,-7.49 -7.31,-13.88 -13.6,-18.88 -6.36,-5.05 -13.97,-7.08 -21.87,-7.3 -12.9,0 -24.02,4.13 -32.91,13.58 -9.66,10.28 -12.86,23.66 -12.86,37.47l0 130.5 -28.27 0 0 -133.28c0,-13.18 -4.49,-24.5 -13.58,-34.05 -8.85,-9.3 -19.39,-14.22 -32.11,-14.22 -12.17,0.72 -21.81,6.08 -29.27,15.89 -8.07,10.63 -11.71,22.71 -11.71,36.04l0 129.42 -29.9 1.22 0 -132.33c0,-13.24 2.94,-25.81 8.86,-37.65 5.85,-11.7 14.14,-21.5 24.91,-28.94 10.82,-7.49 22.88,-11.41 36.22,-11.93 13.63,0 26.6,3.12 38.55,9.69 8.94,4.91 16.57,11.25 22.55,19.22zm361.01 -92.83l0 274.56 -27.46 0 0 -274.56 -99.92 0 0 -25.83 227.29 0 0 25.83 -99.91 0zm95.85 273.98l-28.27 -1.26 0 -145.31c0,-11.86 3.1,-22.89 9.62,-32.81 6.4,-9.72 14.89,-17.25 25.23,-22.6 10.47,-5.41 21.72,-8.08 33.5,-8.08l31.4 0 0 28.28 -29.77 0c-8.3,0 -16.62,1.53 -23.6,6.25 -6.12,4.14 -10.71,9.54 -13.64,16.33 -3.08,7.12 -4.47,14.64 -4.47,22.38l0 136.82zm122.1 -147.51l137.43 0 0 29.9 -150.72 0c-0.58,4.13 -0.77,8.36 -0.77,12.47 0,14.27 2.93,28.01 10.26,40.36 7.03,11.85 16.94,20.59 29.27,26.71 14.13,7.01 29.97,9.56 45.63,9.56l66.33 0 0 28.28 -68.36 0c-21.04,0 -42.15,-3.56 -60.99,-13.29 -16.71,-8.64 -30.21,-20.83 -39.48,-37.24 -9.33,-16.49 -13.38,-34.61 -13.38,-53.5 0,-18.99 4.65,-36.8 14.54,-53.03 9.8,-16.09 23.16,-28.55 39.73,-37.54 17.22,-9.34 35.95,-13.6 55.52,-13.6l72.42 0 0 29.09 -79.73 0c-12.97,0 -25.07,3.26 -36.27,9.81 -9.29,5.43 -16.3,12.92 -21.43,22.02zm198.16 -157.99c4.68,0 8.77,1.77 11.9,5.24 3.04,3.36 4.47,7.43 4.47,11.94 0,4.44 -1.5,8.4 -4.73,11.48 -3.22,3.07 -7.21,4.49 -11.64,4.49 -4.29,0 -8.1,-1.53 -11.3,-4.63 -3.04,-3.14 -4.53,-6.98 -4.53,-11.34 0,-4.44 1.43,-8.47 4.36,-11.82 2.99,-3.43 6.91,-5.36 11.47,-5.36zm-14.27 305.27l0 -203.73 29.09 0 0 203.73 -29.09 0zm251.26 -127.25l0 128.06 -29.09 0 0 -124c0,-10.51 -2.69,-20.24 -8.2,-29.19 -5.57,-9.06 -12.95,-16.16 -22.15,-21.52 -9.21,-5.37 -19.16,-8.21 -29.7,-8.46 -11.97,0 -23.12,2.88 -33.36,9.09 -10.05,6.09 -17.92,14.19 -23.68,24.44 -5.74,10.21 -8.57,21.24 -8.57,32.95l0 115.88 -29.09 0 0 -122.38c0,-16.52 4.46,-31.81 13.56,-45.6 9.06,-13.74 21.11,-24.28 35.71,-31.88 14.78,-7.68 30.55,-11.73 47.23,-11.59 16.26,0.14 31.5,4.36 45.26,13.02 12.85,8.08 23.46,18.61 30.99,31.81 6.93,12.14 11.09,25.32 11.09,39.37zm175.32 -20.03c-0.57,-4.82 -1.98,-9.44 -4.37,-13.78 -3.04,-5.53 -7.19,-9.94 -12.58,-13.23 -5.43,-3.32 -11.27,-4.82 -17.63,-4.82l-99.16 0 0 -29.09 91.58 0c12.3,0 24.16,2.38 35.31,7.65 10.84,5.13 19.71,12.68 26.33,22.68 6.91,10.45 9.9,22.31 9.9,34.78l0 143.9 -112.22 0c-12.72,0 -24.4,-3.55 -34.95,-10.66 -10.74,-7.23 -18.87,-16.83 -24.63,-28.39 -5.97,-11.96 -8.78,-24.88 -8.78,-38.43 0.5,-13.36 4.44,-25.66 12.14,-36.61 7.75,-11.03 18.08,-19.27 30.24,-25.05 12.92,-6.15 26.79,-8.95 41.07,-8.95l67.75 0zm192.23 -33.64c5.42,-8.05 12.42,-14.69 20.84,-20.01 11.26,-7.11 23.68,-10.52 37.11,-10.52 9.06,0.22 17.88,2.03 26.25,5.53 8.33,3.48 15.87,8.3 22.55,14.38 6.78,6.16 12.17,13.4 16.06,21.69 3.97,8.46 5.88,17.42 5.88,26.76l0 143.09 -29.08 0 0 -129.62c0,-8.86 -1.43,-17.48 -4.62,-25.75 -2.88,-7.49 -7.31,-13.88 -13.6,-18.88 -6.36,-5.05 -13.97,-7.08 -21.87,-7.3 -12.9,0 -24.02,4.13 -32.91,13.58 -9.66,10.28 -12.86,23.66 -12.86,37.47l0 130.5 -28.27 0 0 -133.28c0,-13.18 -4.49,-24.5 -13.58,-34.05 -8.85,-9.3 -19.39,-14.22 -32.11,-14.22 -12.17,0.72 -21.81,6.08 -29.27,15.89 -8.07,10.63 -11.71,22.71 -11.71,36.04l0 129.42 -29.9 1.22 0 -132.33c0,-13.24 2.94,-25.81 8.86,-37.65 5.85,-11.7 14.14,-21.5 24.91,-28.94 10.82,-7.49 22.88,-11.41 36.22,-11.93 13.63,0 26.6,3.12 38.55,9.69 8.94,4.91 16.57,11.25 22.55,19.22zm194.34 33.64l137.43 0 0 29.9 -150.72 0c-0.58,4.13 -0.77,8.36 -0.77,12.47 0,14.27 2.93,28.01 10.26,40.36 7.03,11.85 16.94,20.59 29.27,26.71 14.13,7.01 29.97,9.56 45.63,9.56l66.33 0 0 28.28 -68.36 0c-21.04,0 -42.15,-3.56 -60.99,-13.29 -16.71,-8.64 -30.21,-20.83 -39.48,-37.24 -9.33,-16.49 -13.38,-34.61 -13.38,-53.5 0,-18.99 4.65,-36.8 14.54,-53.03 9.8,-16.09 23.16,-28.55 39.73,-37.54 17.22,-9.34 35.95,-13.6 55.52,-13.6l72.42 0 0 29.09 -79.73 0c-12.97,0 -25.07,3.26 -36.27,9.81 -9.29,5.43 -16.3,12.92 -21.43,22.02zm350.26 20.03l0 128.06 -29.09 0 0 -124c0,-10.51 -2.69,-20.24 -8.2,-29.19 -5.57,-9.06 -12.95,-16.16 -22.15,-21.52 -9.21,-5.37 -19.16,-8.21 -29.7,-8.46 -11.97,0 -23.12,2.88 -33.36,9.09 -10.05,6.09 -17.92,14.19 -23.68,24.44 -5.74,10.21 -8.57,21.24 -8.57,32.95l0 115.88 -29.09 0 0 -122.38c0,-16.52 4.46,-31.81 13.56,-45.6 9.06,-13.74 21.11,-24.28 35.71,-31.88 14.78,-7.68 30.55,-11.73 47.23,-11.59 16.26,0.14 31.5,4.36 45.26,13.02 12.85,8.08 23.46,18.61 30.99,31.81 6.93,12.14 11.09,25.32 11.09,39.37zm52.39 -80.14l69.12 0 0 29.5 -69.12 0 0 107.09c0,11.23 1.48,23.95 7.18,33.85 5.15,8.94 15.13,11.11 24.78,11.11l35.46 0 0 26.65 -39.11 0c-15.05,0 -28.31,-4.87 -39.79,-14.58 -15.91,-13.46 -18.42,-40.09 -18.42,-59.46l0 -236.51 29.9 0 0 102.35zm199.29 -4.06c19.03,0 36.81,4.81 53.23,14.43 16.36,9.58 29.35,22.7 38.89,39.1 9.67,16.61 14.42,34.66 14.42,53.89 0,19.01 -4.82,36.83 -14.43,53.23 -9.54,16.3 -22.58,29.33 -38.88,38.87 -16.43,9.63 -34.2,14.37 -53.23,14.37 -19.07,0 -36.98,-4.71 -53.43,-14.37 -16.32,-9.58 -29.28,-22.53 -38.82,-38.88 -9.57,-16.4 -14.28,-34.24 -14.28,-53.22 0,-19.22 4.62,-37.31 14.27,-53.96 9.52,-16.4 22.48,-29.43 38.83,-39.03 16.45,-9.66 34.35,-14.43 53.43,-14.43zm251.53 -59.05l0 67.58 201.45 0 0 27.46 -201.45 0 0 176.27 -30.71 0 0 -302.02 234.67 0 0 30.71 -203.96 0zm240.53 270.5l0 -203.73 29.09 0 0 203.73 -29.09 0zm44.8 -270.41l-31.5 43.37 -27.83 0 29.47 -43.37 29.86 0zm184.11 88.86l-116.28 0c-5.48,0 -10.2,1.61 -14.46,5.05 -3.85,3.11 -5.72,6.93 -5.72,11.88 0,4.22 0.75,9.08 4.74,11.38 5.59,3.23 18.89,3.52 25.18,3.52l46.71 0c13.98,0 27.45,2.89 39.8,9.54 11.69,6.29 21.05,15.09 27.91,26.46 6.88,11.39 10.38,23.78 10.8,37.24 0,13.88 -3.41,26.97 -10.42,38.95 -6.9,11.77 -16.3,21.15 -28.06,28.04 -11.59,6.8 -24.17,10.3 -37.59,10.3l-108.1 0 0 -29.09 110.94 0c7.95,0 15.25,-2.11 22.07,-6.19 6.99,-4.18 12.4,-9.72 16.43,-16.8 4.02,-7.05 6.05,-14.6 6.05,-22.71 0,-8.48 -2.08,-16.28 -6.45,-23.55 -4.35,-7.22 -10.22,-12.87 -17.58,-16.96 -7.51,-4.18 -15.58,-6.14 -24.17,-6.14l-63.77 0c-7.8,0 -15.08,-2.13 -21.58,-6.44 -6.5,-4.31 -11.41,-10.07 -14.96,-16.99 -3.63,-7.07 -5.42,-14.65 -5.42,-22.59 0,-7.95 2.38,-15.32 6.8,-21.93 4.58,-6.85 10.75,-11.98 18.11,-15.65 7.41,-3.68 15.35,-5.6 23.62,-5.6l115.4 0 0 28.28zm73.72 -123.72c4.68,0 8.77,1.77 11.9,5.24 3.04,3.36 4.47,7.43 4.47,11.94 0,4.44 -1.5,8.4 -4.73,11.48 -3.22,3.07 -7.21,4.49 -11.64,4.49 -4.29,0 -8.1,-1.53 -11.3,-4.63 -3.04,-3.14 -4.53,-6.98 -4.53,-11.34 0,-4.44 1.43,-8.47 4.36,-11.82 2.99,-3.43 6.91,-5.36 11.47,-5.36zm-14.27 305.27l0 -203.73 29.09 0 0 203.73 -29.09 0zm252.88 -208.2l0 28.28 -70.46 0c-15.19,0 -29.87,3 -43.14,10.57 -11.9,6.79 -21.55,15.93 -28.32,27.85 -6.49,11.41 -10.07,23.59 -10.38,36.59 0,21.8 7.01,40.49 23.21,55.27 17.55,16 40.26,21.36 63.51,21.36l65.58 0 0 28.28 -67.95 0c-21.01,0 -42.06,-3.56 -60.86,-13.29 -16.67,-8.63 -30.09,-20.88 -39.29,-37.33 -9.24,-16.49 -13.29,-34.56 -13.29,-53.41 0,-19 4.65,-36.8 14.54,-53.03 9.8,-16.09 23.16,-28.55 39.72,-37.54 17.22,-9.34 35.95,-13.6 55.52,-13.6l71.61 0zm132.68 -3.25c19.03,0 36.81,4.81 53.23,14.43 16.36,9.58 29.35,22.7 38.89,39.1 9.67,16.61 14.42,34.66 14.42,53.89 0,19.01 -4.82,36.83 -14.43,53.23 -9.54,16.3 -22.58,29.33 -38.88,38.87 -16.43,9.63 -34.2,14.37 -53.23,14.37 -19.07,0 -36.98,-4.71 -53.43,-14.37 -16.32,-9.58 -29.28,-22.53 -38.82,-38.88 -9.57,-16.4 -14.28,-34.24 -14.28,-53.22 0,-19.22 4.62,-37.31 14.27,-53.96 9.52,-16.4 22.48,-29.43 38.83,-39.03 16.45,-9.66 34.35,-14.43 53.43,-14.43zm-5406.52 29.09c-13.81,0 -26.52,3.55 -38.43,10.55 -11.97,7.04 -21.49,16.57 -28.47,28.59 -7.03,12.12 -10.49,25.17 -10.49,39.19 0,14.2 3.48,27.38 10.57,39.67 6.95,12.05 16.33,21.7 28.28,28.8 11.87,7.05 24.74,10.53 38.54,10.53 13.87,0 26.75,-3.45 38.67,-10.53 11.95,-7.1 21.32,-16.76 28.27,-28.8 7.1,-12.3 10.57,-25.47 10.57,-39.67 0,-14.02 -3.46,-27.07 -10.49,-39.19 -6.99,-12.03 -16.43,-21.53 -28.41,-28.59 -11.91,-7.03 -24.78,-10.55 -38.61,-10.55zm1076.7 0c-13.81,0 -26.52,3.55 -38.43,10.55 -11.97,7.04 -21.49,16.57 -28.47,28.59 -7.03,12.12 -10.49,25.17 -10.49,39.19 0,14.2 3.48,27.38 10.57,39.67 6.95,12.05 16.33,21.7 28.28,28.8 11.87,7.05 24.74,10.53 38.54,10.53 13.87,0 26.75,-3.45 38.67,-10.53 11.95,-7.1 21.32,-16.76 28.27,-28.8 7.1,-12.3 10.57,-25.47 10.57,-39.67 0,-14.02 -3.46,-27.07 -10.49,-39.19 -6.99,-12.03 -16.43,-21.53 -28.41,-28.59 -11.91,-7.03 -24.78,-10.55 -38.61,-10.55zm501.94 64.98l-73.79 0c-8.61,0 -16.67,2.17 -24.24,6.24 -7.58,4.08 -13.73,9.68 -18.42,16.88 -4.5,6.9 -6.77,14.41 -6.77,22.65 0,12.54 3.43,24.02 12.66,32.79 10.26,9.75 25.59,12.17 39.2,12.17l71.36 0 0 -90.73zm1673.68 0l-73.79 0c-8.61,0 -16.67,2.17 -24.24,6.24 -7.58,4.08 -13.73,9.68 -18.42,16.88 -4.5,6.9 -6.77,14.41 -6.77,22.65 0,12.54 3.43,24.02 12.66,32.79 10.26,9.75 25.59,12.17 39.2,12.17l71.36 0 0 -90.73zm988.16 -64.98c-13.81,0 -26.52,3.55 -38.43,10.55 -11.97,7.04 -21.49,16.57 -28.47,28.59 -7.03,12.12 -10.49,25.17 -10.49,39.19 0,14.2 3.48,27.38 10.57,39.67 6.95,12.05 16.33,21.7 28.28,28.8 11.87,7.05 24.74,10.53 38.54,10.53 13.87,0 26.75,-3.45 38.67,-10.53 11.95,-7.1 21.32,-16.76 28.27,-28.8 7.1,-12.3 10.57,-25.47 10.57,-39.67 0,-14.02 -3.46,-27.07 -10.49,-39.19 -6.99,-12.03 -16.43,-21.53 -28.41,-28.59 -11.91,-7.03 -24.78,-10.55 -38.61,-10.55zm1165.98 0c-13.81,0 -26.52,3.55 -38.43,10.55 -11.97,7.04 -21.49,16.57 -28.47,28.59 -7.03,12.12 -10.49,25.17 -10.49,39.19 0,14.2 3.48,27.38 10.57,39.67 6.95,12.05 16.33,21.7 28.28,28.8 11.87,7.05 24.74,10.53 38.54,10.53 13.87,0 26.75,-3.45 38.67,-10.53 11.95,-7.1 21.32,-16.76 28.27,-28.8 7.1,-12.3 10.57,-25.47 10.57,-39.67 0,-14.02 -3.46,-27.07 -10.49,-39.19 -6.99,-12.03 -16.43,-21.53 -28.41,-28.59 -11.91,-7.03 -24.78,-10.55 -38.61,-10.55z"/>
 </g>
</svg>
